<?xml version="1.0" encoding="UTF-8" standalone="no"?>
<!-- Created with Inkscape (http://www.inkscape.org/) -->

<svg
   version="1.1"
   id="svg2"
   width="28"
   height="28"
   viewBox="0 0 54.000001 54.000001"
   xmlns="http://www.w3.org/2000/svg"
   xmlns:svg="http://www.w3.org/2000/svg">
  <defs
     id="defs6" />
  <g
     id="layer1"
     style="display:inline"
     transform="translate(-60.917999,-40.652351)">
    <g
       id="groupbody">
      <rect
         style="display:none;fill:#552200;fill-opacity:1;stroke-width:1.01602"
         id="roundbg"
         width="54"
         height="54"
         x="60.917999"
         y="40.652351"
         rx="1.4409833"
         ry="1.5043956" />
      <path
         style="display:inline;fill:#008000;fill-opacity:1;stroke-width:0.32"
         d="m 73.093428,92.344867 c -3.481894,-2.21253 -8.666243,-8.47913 -9.500953,-11.48432 -0.617091,-2.22169 -0.429463,-3.23771 0.814579,-4.41099 1.400192,-1.32055 3.209005,-1.47204 4.757414,-0.39843 3.389642,2.35025 7.360972,10.42907 7.373912,15.00064 0.006,2.07863 0.005,2.08006 -0.95411,2.17293 -0.638506,0.0618 -1.472662,-0.23284 -2.490842,-0.87983 z m 26.124242,0.0751 c -0.72007,-2.86896 2.51864,-11.16895 5.8066,-14.88086 1.49138,-1.68367 2.39241,-2.16737 4.03736,-2.16737 1.20805,0 1.6857,0.17818 2.4888,0.92839 0.87481,0.81719 0.993,1.13339 0.98682,2.64 -0.0116,2.81814 -1.60763,5.64072 -5.51644,9.75568 -3.96692,4.17614 -7.29147,5.76283 -7.80314,3.72416 z m -13.24922,-2.12893 c -3.9354,-1.04822 -6.82725,-4.59988 -10.607172,-13.02731 -1.384502,-3.08678 -1.660854,-4.02772 -1.7856,-6.07973 -0.177155,-2.91409 0.276102,-4.12301 2.809042,-7.49226 2.70131,-3.59319 3.37706,-5.29535 3.23949,-8.16 -0.26297,-5.47566 -0.16656,-7.16297 0.49366,-8.64 1.37649,-3.07946 4.16748,-4.799995 7.7864,-4.799995 3.90461,0 6.70229,1.849055 7.98879,5.279995 0.6435,1.71611 0.69321,2.22584 0.4681,4.8 -0.51084,5.84181 -0.3221,6.62583 2.56247,10.6442 4.61701,6.43175 4.68111,8.09395 0.63214,16.39367 -2.25282,4.6179 -4.26555,7.70245 -5.96116,9.1356 -2.18234,1.84453 -5.15696,2.60351 -7.62616,1.94583 z M 70.498497,60.941517 c -1.075001,-0.84559 -2.050003,-2.73941 -2.417296,-4.6953 -0.577475,-3.07513 0.314058,-4.13326 2.657495,-3.15411 4.528457,1.89211 6.261784,6.39718 3.09198,8.03635 -1.284016,0.66399 -2.324617,0.60561 -3.332179,-0.18694 z"
         id="body" />
      <path
         style="display:inline;fill:#005f00;fill-opacity:1;stroke-width:0.32"
         d="m 101.92859,61.063887 c -2.32805,-1.44427 -1.98786,-3.92228 0.8857,-6.45169 3.405,-2.9972 5.92437,-2.09694 4.95088,1.76914 -1.08177,4.2961 -3.42685,6.1775 -5.83658,4.68255 z"
         id="hand" />
    </g>
  </g>
</svg>
